<svg xmlns="http://www.w3.org/2000/svg" width="1512" height="148" viewBox="0 0 1512 148" fill="none"><path d="M1512 96.3597C1512 96.3597 1473.07 73.4676 1437.33 71.8705C1401.07 70.2734 1370.13 71.8705 1325.87 79.8561C1265.6 90.5036 1149.33 133.626 1087.47 110.201C1025.6 86.777 1022.93 85.7122 991.467 70.8058C956.267 53.7698 884.8 19.6978 796.267 21.295C701.867 22.8921 530.667 109.669 460.267 105.41C452.8 104.878 425.067 101.151 404.267 94.7626C384 88.3741 354.133 74.5324 313.6 69.741C296.533 67.6115 269.333 63.8849 237.867 64.9496C229.867 65.482 204.267 67.0791 173.867 73.4676C143.467 79.8561 115.2 89.9712 89.6 93.1655C34.6667 99.0216 0 90.5036 0 90.5036V148H1512V96.3597ZM1390.93 87.8417C1387.2 93.1655 1380.27 89.9712 1368 89.9712C1355.73 89.9712 1335.47 96.3597 1337.07 95.8273C1338.67 95.295 1353.6 87.8417 1369.07 85.7122C1385.07 83.0504 1394.13 82.518 1390.93 87.8417ZM1292.8 102.216C1292.8 102.216 1280 103.281 1262.93 107.007C1245.87 111.266 1208 121.914 1182.4 125.64C1138.67 131.496 1098.13 125.64 1101.87 125.108C1106.13 124.576 1153.07 128.302 1195.73 119.252C1213.33 115.525 1245.33 107.54 1261.87 104.878C1279.47 101.683 1292.8 102.216 1292.8 102.216ZM987.733 102.748C996.8 106.475 916.8 77.7266 889.067 70.2734C877.867 67.0791 856 61.7554 835.733 59.6259C814.933 57.4964 788.267 57.4964 788.8 56.964C788.8 55.8993 819.733 52.705 848.533 56.964C877.333 61.223 876.267 62.8201 889.067 65.482C909.333 69.741 978.667 99.0216 987.733 102.748ZM1061.87 111.266C1062.93 111.266 1057.6 113.396 1036.27 105.41C1014.93 97.4245 1000.53 86.777 999.467 85.7122C998.4 85.1799 1018.13 95.295 1034.67 101.683C1050.67 108.072 1061.33 111.266 1061.87 111.266ZM1509.33 116.058C1508.8 115.525 1499.2 110.201 1483.73 102.748C1468.27 95.295 1446.93 87.8417 1448 88.3741C1449.07 88.3741 1466.67 91.5683 1487.47 101.683C1508.27 111.799 1509.87 116.59 1509.33 116.058ZM166.933 86.2446C167.467 87.3094 156.8 87.3094 142.933 92.6331C129.067 97.9568 114.133 101.151 101.333 103.281C80 107.54 38.9333 102.748 41.0667 102.216C42.6667 101.683 84.8 103.813 107.733 98.4892C119.467 95.8273 120.533 95.8273 138.133 89.9712C155.733 84.1151 166.4 84.6475 166.933 86.2446ZM389.333 99.0216C391.467 99.554 408 107.54 434.133 112.863C460.267 118.719 481.6 115.525 481.6 117.122C481.6 118.719 476.267 121.914 448.533 118.719C420.8 115.525 387.2 98.4892 389.333 99.0216ZM381.867 112.331C382.933 111.799 400 119.252 412.267 121.381C424.533 122.978 422.4 124.043 422.4 124.576C422.4 125.108 416.533 125.64 408 123.511C398.933 120.849 380.8 112.863 381.867 112.331ZM499.2 124.576C499.733 123.511 517.867 120.317 529.067 114.993C540.267 109.669 538.667 111.799 539.2 112.331C539.733 112.863 534.933 116.59 526.4 119.252C517.867 122.446 498.667 125.64 499.2 124.576ZM348.8 88.9065C348.267 87.3094 350.4 86.2446 358.933 89.9712C367.467 93.6978 372.8 96.8921 370.667 96.3597C368.533 95.8273 365.867 94.2302 357.333 92.1007C348.267 89.9712 349.333 90.5036 348.8 88.9065ZM184 81.9856C182.933 81.9856 195.2 77.7266 201.6 77.1942C208 76.6619 212.267 76.6619 212.267 78.259C212.267 79.8561 211.733 80.9209 203.733 80.3885C195.2 79.8561 185.067 81.9856 184 81.9856ZM811.733 35.6691C811.2 35.1367 798.933 37.2662 771.733 37.2662C745.067 37.2662 699.2 50.0432 680 55.8993C660.8 61.7554 733.333 35.1367 768 34.0719C802.667 33.0072 812.267 36.2014 811.733 35.6691Z" fill="white"></path><path d="M1437.87 52.1727C1437.33 52.705 1413.33 50.5756 1399.47 52.1727C1360.53 55.8993 1308.8 69.2086 1310.93 67.6115C1313.07 66.0144 1384 51.1079 1401.6 50.0432C1427.73 47.9137 1438.4 52.1727 1437.87 52.1727Z" fill="white"></path><path d="M1212.8 95.8274C1211.73 96.3598 1188.8 101.151 1162.13 102.216C1135.47 103.281 1094.4 99.0217 1096.53 99.5541C1098.13 100.086 1128 109.137 1167.47 105.943C1206.93 102.748 1213.87 95.2951 1212.8 95.8274Z" fill="white"></path><path d="M1090.67 76.6618C1090.13 77.1942 1101.33 81.9855 1107.73 82.5179C1114.13 83.0503 1118.4 82.5179 1118.4 80.9208C1118.4 79.3236 1117.87 78.2589 1109.87 78.7913C1100.8 79.3236 1091.2 76.1294 1090.67 76.6618Z" fill="white"></path><path d="M1072 91.5682C1072 92.1006 1048.53 85.1797 1038.4 79.856C1028.27 75.0646 1005.33 63.3524 1005.87 63.3524C1006.4 62.82 1028.27 71.8704 1039.47 77.1941C1050.67 82.5179 1072 91.0358 1072 91.5682Z" fill="white"></path><path d="M824 5.85601C823.467 6.38838 799.467 4.25889 785.6 5.85601C746.667 9.58263 694.933 22.892 697.067 21.2949C699.2 19.6977 770.133 4.79126 787.733 3.72651C813.867 1.59702 824.533 5.32364 824 5.85601Z" fill="white"></path><path d="M223.467 45.2517C223.467 45.2517 229.867 46.8488 238.933 45.784C248 44.7193 269.867 40.9927 282.667 42.0574C305.067 44.1869 322.133 56.4315 320 55.8992C317.867 55.8992 297.067 44.1869 274.133 45.784C264.533 46.3164 246.933 48.4459 238.4 47.9136C229.867 47.3812 223.467 45.2517 223.467 45.2517Z" fill="white"></path><path d="M402.667 80.9209C403.733 80.3886 413.333 85.1799 425.6 86.7771C437.867 87.8418 436.8 88.3742 436.8 89.4389C436.8 89.9713 427.2 91.5684 418.667 89.4389C410.133 86.7771 401.6 81.4533 402.667 80.9209Z" fill="white"></path><path d="M83.2 77.7266C83.2 78.259 106.133 77.7266 118.933 75.0647C131.733 72.4029 145.6 64.9496 145.6 64.4172C145.6 63.8849 131.2 68.6762 118.4 71.8705C106.133 75.0647 83.7333 77.1942 83.2 77.7266Z" fill="white"></path></svg>