<?xml version="1.0" encoding="UTF-8"?>
<!DOCTYPE svg PUBLIC "-//W3C//DTD SVG 1.1//EN" "http://www.w3.org/Graphics/SVG/1.1/DTD/svg11.dtd">
<svg xmlns="http://www.w3.org/2000/svg" version="1.1" width="750px" height="73px" style="shape-rendering:geometricPrecision; text-rendering:geometricPrecision; image-rendering:optimizeQuality; fill-rule:evenodd; clip-rule:evenodd" xmlns:xlink="http://www.w3.org/1999/xlink">
<g><path style="opacity:0.973" fill="#fefffe" d="M -0.5,0.5 C 249.5,0.5 499.5,0.5 749.5,0.5C 749.5,9.5 749.5,18.5 749.5,27.5C 728.024,38.0874 705.358,41.5874 681.5,38C 670.388,37.0693 659.388,35.4026 648.5,33C 624.158,26.1317 599.491,20.7984 574.5,17C 566.5,16.3333 558.5,16.3333 550.5,17C 525.866,23.8146 502.199,33.1479 479.5,45C 453.761,56.6849 426.761,62.8515 398.5,63.5C 377.614,62.6896 357.281,58.8563 337.5,52C 312.957,43.5968 288.291,35.5968 263.5,28C 252.707,24.7568 241.707,22.5902 230.5,21.5C 220.713,22.6868 211.046,24.5201 201.5,27C 165.922,41.1013 129.255,45.1013 91.5,39C 75.2562,34.9184 58.9229,31.2517 42.5,28C 28.0789,27.0122 13.7456,27.5122 -0.5,29.5C -0.5,19.8333 -0.5,10.1667 -0.5,0.5 Z M 675.5,30.5 C 677.473,29.8373 679.639,29.5039 682,29.5C 684.7,29.3909 687.2,29.8909 689.5,31C 684.816,31.4614 680.149,31.2947 675.5,30.5 Z M 448.5,37.5 C 446.898,39.0739 444.898,39.7406 442.5,39.5C 444.214,38.2616 446.214,37.595 448.5,37.5 Z"/></g>
<g><path style="opacity:0.713" fill="#fefffe" d="M 558.5,20.5 C 568.874,20.2336 579.207,20.7336 589.5,22C 593.854,22.4182 597.854,23.7515 601.5,26C 591.09,24.6598 580.59,23.8264 570,23.5C 560.831,24.1117 551.665,24.2784 542.5,24C 547.954,22.7451 553.287,21.5784 558.5,20.5 Z"/></g>
<g><path style="opacity:0.587" fill="#fefffe" d="M 529.5,27.5 C 532.113,28.0955 532.113,28.9288 529.5,30C 520.167,34 510.833,38 501.5,42C 500.167,42.6667 498.833,42.6667 497.5,42C 507.901,36.2947 518.567,31.4614 529.5,27.5 Z"/></g>
<g><path style="opacity:0.625" fill="#fefffe" d="M 206.5,28.5 C 209.898,28.1796 213.232,28.513 216.5,29.5C 210.788,30.8923 205.122,32.559 199.5,34.5C 198.289,33.7261 198.289,32.8928 199.5,32C 201.925,30.7874 204.259,29.6207 206.5,28.5 Z"/></g>
<g><path style="opacity:0.615" fill="#fefffe" d="M 545.5,32.5 C 548.5,32.5 551.5,32.5 554.5,32.5C 554.5,33.5 554.5,34.5 554.5,35.5C 549.44,35.5077 544.44,35.6744 539.5,36C 541.432,34.5415 543.432,33.3748 545.5,32.5 Z"/></g>
<g><path style="opacity:0.594" fill="#fefffe" d="M 40.5,35.5 C 49.9701,34.1836 59.3035,35.3502 68.5,39C 70.1161,39.6152 71.4495,40.6152 72.5,42C 62.0376,39.2213 51.3709,37.0546 40.5,35.5 Z"/></g>
<g><path style="opacity:0.532" fill="#fefffe" d="M 649.5,40.5 C 649.735,39.9033 650.235,39.5699 651,39.5C 671.494,44.8563 692.328,47.6897 713.5,48C 706.247,49.557 698.914,49.8903 691.5,49C 677.292,46.9918 663.292,44.1585 649.5,40.5 Z"/></g>
<g><path style="opacity:0.652" fill="#fefffe" d="M 156.5,45.5 C 158.337,45.6395 158.67,46.3061 157.5,47.5C 152.894,50.4018 147.894,52.2351 142.5,53C 131.48,52.9988 120.48,52.3321 109.5,51C 113.413,49.9481 117.413,49.4481 121.5,49.5C 133.746,51.9224 145.413,50.589 156.5,45.5 Z"/></g>
<g><path style="opacity:0.536" fill="#fefffe" d="M 405.5,72.5 C 399.5,72.5 393.5,72.5 387.5,72.5C 373.126,70.0562 358.793,66.8896 344.5,63C 356.484,64.7281 368.484,66.7281 380.5,69C 389.802,70.0652 399.135,70.7318 408.5,71C 407.263,71.2321 406.263,71.7321 405.5,72.5 Z"/></g>
</svg>
