<svg width="27" height="24" viewBox="0 0 27 24" fill="none" xmlns="http://www.w3.org/2000/svg">
<path d="M0 1.66667C0 1.22464 0.175595 0.800716 0.488156 0.488156C0.800716 0.175595 1.22464 0 1.66667 0H25C25.442 0 25.866 0.175595 26.1785 0.488156C26.4911 0.800716 26.6667 1.22464 26.6667 1.66667C26.6667 2.10869 26.4911 2.53262 26.1785 2.84518C25.866 3.15774 25.442 3.33333 25 3.33333H1.66667C1.22464 3.33333 0.800716 3.15774 0.488156 2.84518C0.175595 2.53262 0 2.10869 0 1.66667ZM0 21.6667C0 21.2246 0.175595 20.8007 0.488156 20.4882C0.800716 20.1756 1.22464 20 1.66667 20H25C25.442 20 25.866 20.1756 26.1785 20.4882C26.4911 20.8007 26.6667 21.2246 26.6667 21.6667C26.6667 22.1087 26.4911 22.5326 26.1785 22.8452C25.866 23.1577 25.442 23.3333 25 23.3333H1.66667C1.22464 23.3333 0.800716 23.1577 0.488156 22.8452C0.175595 22.5326 0 22.1087 0 21.6667ZM1.66667 10C1.22464 10 0.800716 10.1756 0.488156 10.4882C0.175595 10.8007 0 11.2246 0 11.6667C0 12.1087 0.175595 12.5326 0.488156 12.8452C0.800716 13.1577 1.22464 13.3333 1.66667 13.3333H15C15.442 13.3333 15.8659 13.1577 16.1785 12.8452C16.4911 12.5326 16.6667 12.1087 16.6667 11.6667C16.6667 11.2246 16.4911 10.8007 16.1785 10.4882C15.8659 10.1756 15.442 10 15 10H1.66667Z" fill="white"/>
</svg>
