<svg id="Слой_1" data-name="Слой 1" xmlns="http://www.w3.org/2000/svg" viewBox="0 0 730.35 875.8"><defs><style>.cls-1,.cls-2{fill:none;stroke:#000;stroke-miterlimit:10;}.cls-1{stroke-width:19px;}.cls-2{stroke-linecap:round;stroke-width:20px;}</style></defs><path class="cls-1" d="M1066,1002.26H813.5a66.45,66.45,0,0,1-66.11-59.81L698.73,457.76H1180.8l-48.66,484.69A66.44,66.44,0,0,1,1066,1002.26Z" transform="translate(-664.15 -135.96)"/><path class="cls-1" d="M650.5,277.11h501.38a6.31,6.31,0,0,1,6.31,6.31v42.31a0,0,0,0,1,0,0h-514a0,0,0,0,1,0,0V283.42a6.31,6.31,0,0,1,6.31-6.31Z" transform="translate(-685.23 394.43) rotate(-32.44)"/><path class="cls-1" d="M770.39,244.19H987.76a6.24,6.24,0,0,1,6.24,6.24v32.65a0,0,0,0,1,0,0H764.14a0,0,0,0,1,0,0V250.44A6.24,6.24,0,0,1,770.39,244.19Z" transform="translate(-668.41 376.67) rotate(-32.44)"/><path d="M1045,307.84l.63-.17.55-.13.81-.18,1.56-.33c1-.17,2-.39,2.87-.53l2.77-.48,2.69-.41c3.58-.54,7.07-1,10.55-1.39,6.94-.78,13.79-1.39,20.61-1.76q20.46-1.17,40.6-.34a401.34,401.34,0,0,1,79.18,11.17A380.14,380.14,0,0,1,1245.69,325c3.08,1.16,6.13,2.41,9.18,3.61l4.56,1.83,4.49,2c3,1.35,6,2.62,8.93,4l8.75,4.36c2.93,1.4,5.75,3.06,8.59,4.61l4.24,2.37c1.42.78,2.83,1.56,4.2,2.44,5.51,3.41,11,6.69,16.28,10.43a316.9,316.9,0,0,1,30.2,23.41l-10.39,15.1a293.47,293.47,0,0,0-32.51-14.07c-5.45-2.12-11.09-3.75-16.62-5.49-1.37-.46-2.78-.82-4.19-1.19l-4.21-1.1c-2.81-.71-5.57-1.52-8.42-2.07l-8.45-1.81c-2.82-.57-5.68-1-8.5-1.49l-4.23-.72-4.27-.55c-2.84-.35-5.66-.75-8.49-1.05a329,329,0,0,0-34-1.6,336.66,336.66,0,0,0-66.76,7.49c-10.86,2.34-21.56,5.21-32,8.55-5.19,1.65-10.29,3.48-15.23,5.38-2.47.95-4.9,1.93-7.21,2.94l-1.72.75-1.64.76c-.57.25-1,.49-1.51.74a4.38,4.38,0,0,0-.63.34l-.28.16c-.07,0,0,0,0,0h.09Z" transform="translate(-664.15 -135.96)"/><polygon points="631.02 285.73 730.35 303.54 696.12 208.62 631.02 285.73"/><line class="cls-2" x1="154.35" y1="395.54" x2="182.35" y2="781.54"/><line class="cls-2" x1="277.96" y1="400.39" x2="275.99" y2="787.4"/><line class="cls-2" x1="408.98" y1="400.89" x2="380.98" y2="786.89"/></svg>