<?xml version="1.0"?>
<svg width="76.663581" height="140.44" xmlns="http://www.w3.org/2000/svg" xmlns:svg="http://www.w3.org/2000/svg" version="1.1" xml:space="preserve">
 <metadata id="metadata3364">image/svg+xml</metadata>
 <g class="layer">
  <title>Layer 1</title>
  <g fill="#ffffff" id="g3322">
   <path d="m12.62,5.82c-6.29,0 -11.39,5.1 -11.39,11.39c0,6.29 5.1,11.4 11.39,11.4c6.29,0 11.4,-5.11 11.4,-11.4c0,-6.29 -5.11,-11.39 -11.4,-11.39zm0,20.43c-4.99,0 -9.03,-4.05 -9.03,-9.04c0,-4.99 4.04,-9.03 9.03,-9.03c4.99,0 9.04,4.04 9.04,9.03c0,4.99 -4.05,9.04 -9.04,9.04z" fill="#ffffff" fill-rule="evenodd" id="path3324" stroke="#f0bc3c"/>
   <path d="m43.79,0c-6.29,0 -11.39,5.1 -11.39,11.39c0,6.3 5.1,11.4 11.39,11.4c6.3,0 11.4,-5.1 11.4,-11.4c0,-6.29 -5.1,-11.39 -11.4,-11.39zm0,20.43c-4.99,0 -9.03,-4.05 -9.03,-9.04c0,-4.98 4.04,-9.03 9.03,-9.03c4.99,0 9.04,4.05 9.04,9.03c0,4.99 -4.05,9.04 -9.04,9.04z" fill="#ffffff" fill-rule="evenodd" id="path3326" stroke="#f0bc3c"/>
   <path d="m76.15,87.92c1.31,-14.01 -14,-15.32 -14,-15.32c-4.38,-12.69 -14.59,-6.13 -14.59,-6.13c0,0 2.26,-49.02 1.39,-54.71c-0.51,-3.33 -6.38,-10.56 -10,-1.69c-2.13,6.17 -5.59,60.75 -9.46,56.88c-4.51,-4.5 -8.88,-48.13 -10.08,-48.32c-0.97,-4.54 -10.4,-13.34 -11.9,3.16c3,39.5 3.87,47.31 3.87,47.31c-2.19,5.25 -6.07,18.38 -6.07,18.38c-8.32,9.19 -4.38,15.76 -4.38,15.76c7,12.25 21.39,28.45 21.39,28.45c6.13,5.25 2.62,8.31 2.62,8.31l42.46,0.44l2.33,-7.88c9.63,-18.38 6.42,-44.64 6.42,-44.64z" fill="#ffffff" id="path3328" stroke="#f0bc3c"/>
  </g>
  <g id="g3330" transform="translate(-7.9878665e-4,-3.8214145e-7)"/>
  <g id="g3332" transform="translate(-7.9878665e-4,-3.8214145e-7)"/>
  <g id="g3334" transform="translate(-7.9878665e-4,-3.8214145e-7)"/>
  <g id="g3336" transform="translate(-7.9878665e-4,-3.8214145e-7)"/>
  <g id="g3338" transform="translate(-7.9878665e-4,-3.8214145e-7)"/>
  <g id="g3340" transform="translate(-7.9878665e-4,-3.8214145e-7)"/>
  <g id="g3342" transform="translate(-7.9878665e-4,-3.8214145e-7)"/>
  <g id="g3344" transform="translate(-7.9878665e-4,-3.8214145e-7)"/>
  <g id="g3346" transform="translate(-7.9878665e-4,-3.8214145e-7)"/>
  <g id="g3348" transform="translate(-7.9878665e-4,-3.8214145e-7)"/>
  <g id="g3350" transform="translate(-7.9878665e-4,-3.8214145e-7)"/>
  <g id="g3352" transform="translate(-7.9878665e-4,-3.8214145e-7)"/>
  <g id="g3354" transform="translate(-7.9878665e-4,-3.8214145e-7)"/>
  <g id="g3356" transform="translate(-7.9878665e-4,-3.8214145e-7)"/>
  <g id="g3358" transform="translate(-7.9878665e-4,-3.8214145e-7)"/>
  <path d="m52.34,124.78l-8.98,9.45c0,0 -0.59,0.75 -1.21,0.08c-0.86,-0.93 -8.76,-9.75 -8.76,-9.75c0,0 -1.09,-1.18 0.36,-1.17c1.45,0 3.76,0 3.76,0c0,0 0,-0.68 0,-1.72c0,-3.21 0,-9.46 0,-11.85c0,0 -0.02,-0.57 0.65,-0.56c0.67,0 8.3,0 9.24,-0.01c0.94,0.01 0.77,0.67 0.77,0.67c0,2.46 0,8.51 0,11.83c0,1.16 0,1.92 0,1.92c0,0 2.88,0 4.07,0c1.2,-0.01 0.1,1.11 0.1,1.11zm-0.1,-37.82c-1.19,0 -4.07,0 -4.07,0c0,0 0,0.75 0,1.91c0,3.33 0,9.37 0,11.83c0,0 0.17,0.67 -0.77,0.66c-0.94,0.01 -8.56,0.01 -9.24,0.01c-0.67,0 -0.65,-0.56 -0.65,-0.56c0,-2.4 0,-8.65 0,-11.86c0,-1.03 0,-1.72 0,-1.72c0,0 -2.31,0.01 -3.76,0.01c-1.45,0 -0.36,-1.18 -0.36,-1.18c0,0 7.9,-8.82 8.76,-9.75c0.62,-0.67 1.21,0.08 1.21,0.08l8.98,9.44c0,0 1.1,1.13 -0.1,1.13z" fill="#f0bc3c" id="path3432" stroke="#000000"/>
 </g>
</svg>