<?xml version="1.0"?>
<svg width="76.664283" height="133.417" xmlns="http://www.w3.org/2000/svg" xmlns:svg="http://www.w3.org/2000/svg" version="1.1" xml:space="preserve">
 <metadata id="metadata3468">image/svg+xml</metadata>
 <g class="layer">
  <title>Layer 1</title>
  <path d="m18.65,0c-6.29,0 -11.39,5.1 -11.39,11.39c0,6.3 5.1,11.4 11.39,11.4c6.3,0 11.4,-5.1 11.4,-11.4c0,-6.29 -5.1,-11.39 -11.4,-11.39zm0,20.43c-4.99,0 -9.03,-4.05 -9.03,-9.04c0,-4.98 4.04,-9.03 9.03,-9.03c4.99,0 9.04,4.05 9.04,9.03c0,4.99 -4.05,9.04 -9.04,9.04z" fill="#ffffff" fill-rule="evenodd" id="path3430" stroke="#f0bc3c"/>
  <path d="m76.15,80.9c1.32,-14.01 -14,-15.32 -14,-15.32c-4.38,-12.7 -15.76,-6.13 -15.76,-6.13c-5.69,-12.69 -17.07,-3.94 -17.07,-3.94c-1.41,-0.42 -3.71,-43.71 -4.91,-43.91c-0.97,-4.53 -10.4,-13.33 -11.9,3.17c0,36.5 -1.13,47.31 -1.13,47.31c-2.19,5.25 -6.07,18.38 -6.07,18.38c-8.32,9.19 -4.38,15.75 -4.38,15.75c7,12.26 21.39,28.45 21.39,28.45c6.13,5.25 2.63,8.32 2.63,8.32l42.45,0.44l2.33,-7.88c9.63,-18.38 6.42,-44.64 6.42,-44.64z" fill="#ffffff" id="path3432" stroke="#f0bc3c" transform="matrix(1 0 0 1 0 0)"/>
  <path d="m65.25,98.82c-0.68,0.72 -7.15,7.38 -7.15,7.38c0,0 -0.87,0.92 -0.87,-0.3c0,-1.22 0,-3.17 0,-3.17c0,0 -0.49,0.01 -1.26,0c-2.35,0.01 -6.93,0.01 -8.69,0.01c0,0 -0.08,-0.01 -0.16,-0.05c0,0.04 0,0.1 0,0.13c0.01,0.09 0,0.16 0,0.17c0,0.01 0,0.04 0,0.05c0,0 0.02,0.08 0,0.17c0,2.03 0,6.49 0,9c0,0.9 0,1.49 0,1.49c0,0 2.28,0 3.23,0c0.94,0 0.08,0.87 0.08,0.87l-7.13,7.37c0,0 -0.47,0.58 -0.96,0.06c-0.68,-0.73 -6.94,-7.6 -6.94,-7.6c0,0 -0.87,-0.92 0.28,-0.92c1.15,0 2.98,0 2.98,0c0,0 0,-0.53 0,-1.34c0,-2.5 0,-7.37 0,-9.23l0,-0.01c0,-0.05 0,-0.14 0,-0.21c-0.08,0.04 -0.16,0.05 -0.16,0.05c-1.75,0 -6.34,0 -8.69,-0.01c-0.76,0.01 -1.27,0 -1.27,0c0,0 0.01,1.95 0.01,3.17c0,1.22 -0.87,0.3 -0.87,0.3c0,0 -6.46,-6.65 -7.14,-7.37c-0.5,-0.53 0.05,-1.03 0.05,-1.03l6.93,-7.57c0,0 0.82,-0.92 0.82,0.09c0,1 0,3.43 0,3.43c0,0 0.56,0 1.41,0c2.44,0 6.87,0 8.67,0c0,0 0.12,-0.03 0.24,0.02c0,-4.08 0,-8.2 0,-9.43c0,-0.81 0,-1.34 0,-1.34c0,0 -1.83,0 -2.98,0c-1.15,0 -0.28,-0.92 -0.28,-0.92c0,0 6.26,-6.87 6.94,-7.59c0.49,-0.53 0.96,0.05 0.96,0.05l7.13,7.37c0,0 0.86,0.87 -0.08,0.87c-0.95,0 -3.23,0 -3.23,0c0,0 0,0.59 0,1.49c0,1.29 0,5.42 0,9.51c0.12,-0.07 0.24,-0.03 0.24,-0.03c1.8,0 6.24,0 8.68,0c0.85,0 1.4,0 1.4,0c0,0 0,-2.43 0,-3.43c0,-1.01 0.82,-0.09 0.82,-0.09l6.93,7.57c0,0 0.55,0.5 0.06,1.03l0,-0.01z" fill="#f0bc3c" id="path3238" stroke="#000000"/>
  <g id="g3434" transform="translate(-7.9878665e-4,-2.9265169e-6)"/>
  <g id="g3436" transform="translate(-7.9878665e-4,-2.9265169e-6)"/>
  <g id="g3438" transform="translate(-7.9878665e-4,-2.9265169e-6)"/>
  <g id="g3440" transform="translate(-7.9878665e-4,-2.9265169e-6)"/>
  <g id="g3442" transform="translate(-7.9878665e-4,-2.9265169e-6)"/>
  <g id="g3444" transform="translate(-7.9878665e-4,-2.9265169e-6)"/>
  <g id="g3446" transform="translate(-7.9878665e-4,-2.9265169e-6)"/>
  <g id="g3448" transform="translate(-7.9878665e-4,-2.9265169e-6)"/>
  <g id="g3450" transform="translate(-7.9878665e-4,-2.9265169e-6)"/>
  <g id="g3452" transform="translate(-7.9878665e-4,-2.9265169e-6)"/>
  <g id="g3454" transform="translate(-7.9878665e-4,-2.9265169e-6)"/>
  <g id="g3456" transform="translate(-7.9878665e-4,-2.9265169e-6)"/>
  <g id="g3458" transform="translate(-7.9878665e-4,-2.9265169e-6)"/>
  <g id="g3460" transform="translate(-7.9878665e-4,-2.9265169e-6)"/>
  <g id="g3462" transform="translate(-7.9878665e-4,-2.9265169e-6)"/>
 </g>
</svg>