<?xml version="1.0"?>
<svg width="95.087431" height="118.43173" xmlns="http://www.w3.org/2000/svg" xmlns:svg="http://www.w3.org/2000/svg" enable-background="new 0 0 100.775 118.638" version="1.1" xml:space="preserve">
 <metadata id="metadata3382">image/svg+xml</metadata>
 <g class="layer">
  <title>Layer 1</title>
  <path d="m0.04,84.94c0,0 -0.28,-1.32 0.58,-0.72c0.86,0.6 2.96,2.06 2.96,2.06c0,0 0.34,-0.52 0.87,-1.32c1.52,-2.28 4.28,-6.42 5.4,-8.11c0,0 0.19,-0.54 0.87,-0.07c0.68,0.48 6.2,4.33 6.69,4.67c0.48,0.34 0.22,0.72 0.22,0.72c-1.1,1.64 -3.95,5.93 -5.42,8.13c-0.47,0.72 -0.78,1.18 -0.78,1.18c0,0 1.67,1.17 2.72,1.9c1.05,0.74 -0.28,0.99 -0.28,0.99c0,0 -9.75,2.06 -10.79,2.26c-0.76,0.15 -0.85,-0.67 -0.85,-0.67l-2.19,-11.02z" fill="#f0bc3c" id="path3376-4" stroke="#000000" transform="matrix(1 0 0 1 0 0)"/>
  <path d="m44.92,16.85c-5.85,0 -10.59,4.87 -10.59,10.86c0,6 4.74,10.86 10.59,10.86c5.85,0 10.59,-4.86 10.59,-10.86c0,-5.99 -4.74,-10.86 -10.59,-10.86zm0,19.47c-4.64,0 -8.4,-3.85 -8.4,-8.61c0,-4.75 3.76,-8.61 8.4,-8.61c4.64,0 8.4,3.86 8.4,8.61c0,4.76 -3.76,8.61 -8.4,8.61z" fill="#ffffff" fill-rule="evenodd" id="path3430" stroke="#f0bc3c" transform="matrix(1 0 0 1 0 0)"/>
  <path d="m23.24,56.18c-5.46,0 -9.88,4.7 -9.88,10.5c0,5.8 4.42,10.5 9.88,10.5c5.46,0 9.88,-4.7 9.88,-10.5c0,-5.8 -4.42,-10.5 -9.88,-10.5zm0,18.83c-4.33,0 -7.83,-3.73 -7.83,-8.33c0,-4.6 3.5,-8.33 7.83,-8.33c4.33,0 7.83,3.73 7.83,8.33c0,4.6 -3.5,8.33 -7.83,8.33z" fill="#ffffff" fill-rule="evenodd" id="path3430-5" stroke="#f0bc3c"/>
  <path d="m89.48,111.78l-1.89,6.65l-38.78,-0.37c0.01,0 2.83,-2.58 -2.12,-7.01c0,0 -10.82,-5.23 -18.51,-18.1c0,0 -6.31,-6.74 -6.09,-9.21c-0.58,-4.4 -1.21,-6.95 -1.71,-8.53c-1.07,-4.04 -1.56,-2.85 -1.56,-7.23c2.46,-14.33 10.87,1.81 12.77,5.49c0,0 6.3,7.58 9.06,9.28c8.85,-2.29 3.04,-22.11 3.66,-23.67c0,0 -1.25,-10.04 -2.82,-23.06c-4,-15.56 8.29,-19.63 11.63,-3.09c1.55,7.34 3.69,19.52 4.49,19.77c0,0 8.39,-7.38 12.99,3.32c0,0 9.21,-5.53 12.75,5.17c0,0 12.38,1.11 11.32,12.93c0,0 2.6,22.15 -5.19,37.66z" fill="#ffffff" id="path3376" stroke="#f0bc3c" transform="matrix(1 0 0 1 0 0)"/>
  <path d="m49.85,14.9c0.7,0.47 6.36,4.27 6.86,4.61c0.49,0.33 0.75,-0.06 0.75,-0.06c1.12,-1.61 4.05,-5.84 5.55,-8.01c0.49,-0.7 0.8,-1.16 0.8,-1.16c0,0 1.71,1.15 2.79,1.87c1.08,0.72 0.82,-0.62 0.82,-0.62c0,0 -1.74,-9.9 -1.94,-10.95c-0.15,-0.76 -0.94,-0.55 -0.94,-0.55l-11.08,1.91c0,0 -1.34,0.21 -0.46,0.8c0.89,0.59 3.03,2.03 3.03,2.03c0,0 -0.36,0.51 -0.9,1.3c-1.56,2.24 -4.39,6.33 -5.54,7.99c0,0.01 -0.43,0.37 0.26,0.84z" fill="#f0bc3c" id="path3376-7-4" stroke="#000000" transform="matrix(1 0 0 1 0 0)"/>
 </g>
</svg>