<?xml version="1.0"?>
<svg width="99.001814" height="101.57817" xmlns="http://www.w3.org/2000/svg" xmlns:svg="http://www.w3.org/2000/svg" enable-background="new 0 0 100.775 118.638" version="1.1" xml:space="preserve">
 <metadata id="metadata3382">image/svg+xml</metadata>
 <g class="layer">
  <title>Layer 1</title>
  <path d="m48.83,0c-5.85,0 -10.59,4.86 -10.59,10.86c0,6 4.74,10.86 10.59,10.86c5.85,0 10.6,-4.86 10.6,-10.86c-0.01,-6 -4.75,-10.86 -10.6,-10.86zm0,19.47c-4.63,0 -8.4,-3.86 -8.4,-8.61c0,-4.76 3.77,-8.61 8.4,-8.61c4.64,0 8.4,3.85 8.4,8.61c0,4.75 -3.76,8.61 -8.4,8.61z" fill="#ffffff" fill-rule="evenodd" id="path3430" stroke="#f0bc3c" transform="matrix(1 0 0 1 0 0)"/>
  <path d="m27.15,39.32c-5.45,0 -9.88,4.7 -9.88,10.51c0,5.8 4.43,10.5 9.89,10.5c5.45,0 9.88,-4.7 9.88,-10.5c0,-5.81 -4.43,-10.51 -9.89,-10.51zm0,18.83c-4.32,0 -7.83,-3.73 -7.83,-8.32c0,-4.6 3.51,-8.33 7.83,-8.33c4.33,0 7.84,3.73 7.84,8.33c0,4.59 -3.51,8.32 -7.84,8.32z" fill="#ffffff" fill-rule="evenodd" id="path3430-5" stroke="#f0bc3c" transform="matrix(1 0 0 1 0 0)"/>
  <path d="m93.39,94.93l-1.88,6.65l-38.78,-0.37c0,0 2.83,-2.59 -2.13,-7.02c0,0 -10.82,-5.22 -18.5,-18.09c0,0 -6.31,-6.74 -6.09,-9.21c-0.59,-4.41 -1.21,-6.95 -1.72,-8.53c-1.06,-4.04 -1.55,-2.85 -1.55,-7.23c2.45,-14.34 10.87,1.81 12.76,5.49c0,0 6.31,7.57 9.06,9.28c8.86,-2.29 3.04,-22.11 3.67,-23.67c0,0 -1.25,-10.04 -2.83,-23.06c-3.99,-15.57 8.29,-19.63 11.64,-3.1c1.54,7.35 3.69,19.53 4.48,19.78c0,0 8.4,-7.39 13,3.32c0,0 9.2,-5.54 12.74,5.17c0,0 12.39,1.11 11.33,12.92c0,0 2.59,22.16 -5.2,37.67z" fill="#ffffff" id="path3376" stroke="#f0bc3c"/>
  <path d="m36.86,10.53l-5.73,12.52c0,0 -0.67,1.51 -1.19,0.31c-0.53,-1.19 -1.8,-4.09 -1.8,-4.09c0,0 -0.78,0.28 -1.97,0.71c-3.41,1.23 -9.61,3.46 -12.14,4.37c0,0 -0.61,0.42 -1.02,-0.53c-0.42,-0.94 -3.78,-8.6 -4.08,-9.28c-0.3,-0.67 0.29,-0.87 0.29,-0.87c2.45,-0.88 8.86,-3.19 12.17,-4.38c1.05,-0.38 1.76,-0.63 1.76,-0.63c0,0 -1.03,-2.32 -1.66,-3.78c-0.64,-1.46 1.04,-0.79 1.04,-0.79c0,0 12.54,4.67 13.87,5.19c0.96,0.38 0.46,1.25 0.46,1.25z" fill="#f0bc3c" id="path9" stroke="#000000" transform="matrix(1 0 0 1 0 0)"/>
  <g id="g2997" transform="matrix(1 0 0 1 0 0) matrix(0 -1 1 0 -0.0131664 45.8822)">
   <path d="m6.66,0.14l12.83,5.46c0,0 1.56,0.64 0.35,1.13c-1.24,0.53 -4.18,1.77 -4.18,1.77c0,0 0.28,0.75 0.75,1.92c1.27,3.26 3.57,9.25 4.53,11.69c0,0 0.43,0.57 -0.57,0.99c-0.95,0.39 -8.75,3.69 -9.46,4.01c-0.67,0.28 -0.88,-0.29 -0.88,-0.29c-0.92,-2.37 -3.33,-8.54 -4.54,-11.73c-0.42,-1.02 -0.67,-1.7 -0.67,-1.7c0,0 -2.38,1 -3.86,1.63c-1.49,0.64 -0.82,-0.99 -0.82,-0.99c0,0 4.71,-12.15 5.25,-13.43c0.39,-0.95 1.27,-0.46 1.27,-0.46z" fill="#f0bc3c" fill-rule="nonzero" id="path2999" stroke="#000000"/>
  </g>
 </g>
</svg>