<?xml version="1.0" encoding="UTF-8"?>
<svg version="1.1" xmlns="http://www.w3.org/2000/svg" width="325" height="128">
<path d="M0 0 C0.83789062 0.40863281 1.67578125 0.81726563 2.5390625 1.23828125 C4.24148551 2.06891967 5.93467626 2.91879806 7.6171875 3.7890625 C9.12295819 4.55429023 10.64799551 5.28364216 12.1953125 5.9609375 C17.96430369 8.52737084 22.14508428 12.29016856 25 18 C25.15117044 20.97108062 25.23139614 23.90303297 25.25 26.875 C25.2809375 28.09896484 25.2809375 28.09896484 25.3125 29.34765625 C25.33553753 32.87815823 25.3285149 35.34398101 23.73046875 38.53515625 C21.31429173 40.58045283 19.0311311 40.60709628 15.94140625 40.46484375 C14 40 14 40 11.5 37.625 C10 35 10 35 10 33 C-6.02659777 45.29224489 -16.19658088 56.85893221 -25.07421875 75.109375 C-29.58067215 84.31242751 -34.57936332 92.82597059 -42 100 C-40.90101298 103.29696105 -40.05402613 104.04670589 -37.4375 106.1875 C-36.79683594 106.71730469 -36.15617187 107.24710937 -35.49609375 107.79296875 C-35.00238281 108.19128906 -34.50867188 108.58960937 -34 109 C-34.33 110.65 -34.66 112.3 -35 114 C-39.68139254 114.02465288 -44.36274759 114.04283739 -49.04418945 114.05493164 C-50.63794614 114.05997157 -52.23169819 114.0668035 -53.82543945 114.07543945 C-56.11150253 114.08751999 -58.39750467 114.09323155 -60.68359375 114.09765625 C-61.40026718 114.10281754 -62.11694061 114.10797882 -62.85533142 114.11329651 C-64.57063672 114.11349263 -66.28581266 114.06192007 -68 114 C-68.33 113.67 -68.66 113.34 -69 113 C-70.59444243 112.98147217 -72.18976356 113.03514217 -73.78222656 113.11669922 C-74.81700134 113.16448517 -75.85177612 113.21227112 -76.91790771 113.26150513 C-78.63690277 113.3447554 -78.63690277 113.3447554 -80.390625 113.4296875 C-96.39523408 114.10935732 -112.38014374 114.15681587 -128.39679718 114.12877274 C-130.78298495 114.12494712 -133.16916866 114.12291646 -135.55535889 114.12130737 C-158.22926584 114.1033365 -180.89984341 113.94227725 -203.57112122 113.59383392 C-205.61327843 113.56267882 -207.65545209 113.53287169 -209.69763184 113.50323486 C-213.47822433 113.44644835 -217.25862989 113.3829174 -221.0390625 113.31640625 C-222.1408786 113.29968369 -223.2426947 113.28296112 -224.37789917 113.26573181 C-230.00202077 113.15631171 -235.42993194 112.77261238 -241 112 C-242.4360307 111.92137435 -243.87432067 111.86970936 -245.3125 111.8671875 C-246.0660376 111.86541504 -246.8195752 111.86364258 -247.59594727 111.86181641 C-248.38928467 111.86616699 -249.18262207 111.87051758 -250 111.875 C-250.84941162 111.8754834 -251.69882324 111.8759668 -252.57397461 111.87646484 C-257.47570306 111.90213993 -262.35847261 112.04602086 -267.25390625 112.296875 C-268.30384766 112.3498877 -269.35378906 112.40290039 -270.43554688 112.45751953 C-272.46227976 112.5660719 -274.4884423 112.6861269 -276.51367188 112.81982422 C-283.91585918 113.2247496 -292.63724319 113.65892399 -298.6875 108.875 C-299.120625 108.25625 -299.55375 107.6375 -300 107 C-299.67 106.01 -299.34 105.02 -299 104 C-297.02 104 -295.04 104 -293 104 C-292.34 102.02 -291.68 100.04 -291 98 C-291.495 97.62875 -291.99 97.2575 -292.5 96.875 C-294.63328708 94.20839115 -294.35330461 92.32106337 -294 89 C-292 87 -292 87 -288.30737305 86.83642578 C-286.70864651 86.86394887 -285.1100664 86.90094082 -283.51171875 86.9453125 C-281.7545658 86.97064923 -279.99740385 86.99536776 -278.24023438 87.01953125 C-275.48009912 87.06872805 -272.72043888 87.12419194 -269.96069336 87.19189453 C-256.14340189 87.50959092 -243.63739084 87.49783374 -232.375 78.375 C-212.59798878 63.22900851 -190.43475389 57.3602364 -166.26953125 53.3515625 C-165.41952545 53.21046555 -164.56951965 53.06936859 -163.6937561 52.92399597 C-160.19725343 52.34547048 -156.70055855 51.76851119 -153.2019043 51.203125 C-143.45260162 49.62260196 -133.80586661 47.84575167 -124.21484375 45.47265625 C-123.41053421 45.27503693 -122.60622467 45.0774176 -121.77754211 44.87380981 C-115.14733092 43.17616641 -108.87123749 40.82014813 -102.62890625 38.0234375 C-98.07612626 36.01548257 -93.47610766 34.13215128 -88.87133789 32.24707031 C-83.89846624 30.20163794 -78.94690458 28.10732546 -74 26 C-72.99501465 25.57702637 -72.99501465 25.57702637 -71.96972656 25.14550781 C-64.26876682 21.85513768 -58.45026025 17.29663331 -52.234375 11.8203125 C-36.92029494 -1.66013222 -19.80379637 -10.73574224 0 0 Z " fill="#D2D2D2" transform="translate(300,14)"/>
<path d="M0 0 C0.66 0 1.32 0 2 0 C1.62875 1.093125 1.2575 2.18625 0.875 3.3125 C0.58625 4.529375 0.2975 5.74625 0 7 C0.99 8.485 0.99 8.485 2 10 C0.68 9.34 -0.64 8.68 -2 8 C-2.125 5.125 -2.125 5.125 -2 2 C-1.34 1.34 -0.68 0.68 0 0 Z " fill="#CBCBCB" transform="translate(8,101)"/>
</svg>
