<?xml version="1.0" encoding="UTF-8"?>
<!DOCTYPE svg PUBLIC "-//W3C//DTD SVG 1.1//EN" "http://www.w3.org/Graphics/SVG/1.1/DTD/svg11.dtd">
<svg xmlns="http://www.w3.org/2000/svg" version="1.1" width="531px" height="268px" style="shape-rendering:geometricPrecision; text-rendering:geometricPrecision; image-rendering:optimizeQuality; fill-rule:evenodd; clip-rule:evenodd" xmlns:xlink="http://www.w3.org/1999/xlink">
<g><path style="opacity:0.977" fill="#d3d3d3" d="M 435.5,-0.5 C 447.167,-0.5 458.833,-0.5 470.5,-0.5C 480.754,1.0873 490.421,4.5873 499.5,10C 503.644,11.2445 507.811,12.4111 512,13.5C 517.576,10.4745 523.409,9.47449 529.5,10.5C 529.5,11.8333 529.5,13.1667 529.5,14.5C 527.181,13.833 524.847,13.6664 522.5,14C 528.023,17.8535 529.189,22.6868 526,28.5C 520.003,33.4219 521.169,35.7552 529.5,35.5C 529.923,38.2431 528.756,39.5765 526,39.5C 523.077,39.2048 520.743,37.8715 519,35.5C 518.333,36.5 518.333,37.5 519,38.5C 521.121,41.1193 523.621,43.1193 526.5,44.5C 524.824,46.9212 522.824,47.0879 520.5,45C 518.333,42.8333 516.167,40.6667 514,38.5C 513.333,39.8333 513.333,41.1667 514,42.5C 516.167,45.5 518.333,48.5 520.5,51.5C 520.167,52.5 519.5,53.1667 518.5,53.5C 514.412,50.249 510.912,46.5823 508,42.5C 499.514,44.9984 491.014,47.4984 482.5,50C 479.265,51.3604 476.765,53.527 475,56.5C 470.078,77.6637 461.412,96.997 449,114.5C 439.422,126.069 427.589,134.569 413.5,140C 389.463,151.567 364.797,161.567 339.5,170C 330.687,172.696 321.687,174.363 312.5,175C 298.316,195.853 280.316,212.52 258.5,225C 239.326,236.253 219.326,245.92 198.5,254C 194.239,255.363 189.905,255.696 185.5,255C 181.784,251.458 181.618,247.625 185,243.5C 187.703,240.462 190.703,237.795 194,235.5C 194.375,233 195.208,230.667 196.5,228.5C 202.425,223.953 208.258,219.287 214,214.5C 218.345,208.809 221.345,202.476 223,195.5C 224.552,194.034 226.386,193.034 228.5,192.5C 233.094,185.071 238.927,178.738 246,173.5C 246.483,172.552 246.649,171.552 246.5,170.5C 233.82,170.601 221.153,171.101 208.5,172C 198.942,172.978 189.608,174.978 180.5,178C 152.256,188.638 124.589,200.638 97.5,214C 80.8808,226.284 64.5475,238.951 48.5,252C 42.4336,256.395 36.1002,260.395 29.5,264C 19.6474,266.252 9.6474,267.085 -0.5,266.5C -0.5,262.5 -0.5,258.5 -0.5,254.5C 1.34004,252.832 3.34004,251.332 5.5,250C 4.42575,249.261 3.75908,248.261 3.5,247C 4.72206,244.966 5.72206,242.8 6.5,240.5C 13.5592,239.362 13.8925,237.862 7.5,236C 4.84376,233.771 5.1771,231.938 8.5,230.5C 7.04654,228.356 7.37987,226.523 9.5,225C 14.0907,223.136 18.7574,221.47 23.5,220C 34.9625,219.698 45.9625,217.365 56.5,213C 60.3135,210.353 63.6469,207.187 66.5,203.5C 53.9957,199.498 41.6623,194.998 29.5,190C 24.4149,187.292 20.4149,183.459 17.5,178.5C 19.286,175.611 21.9527,174.111 25.5,174C 22.8637,168.379 24.3637,167.212 30,170.5C 29.2318,168.156 28.0651,165.823 26.5,163.5C 27.6667,163.167 28.8333,162.833 30,162.5C 33.4098,163.796 36.9098,164.296 40.5,164C 36.9071,160.915 33.9071,157.415 31.5,153.5C 32.0476,151.444 33.2142,149.777 35,148.5C 35.2256,145.905 35.7256,143.405 36.5,141C 40.9791,140.437 44.9791,141.603 48.5,144.5C 61.1667,156.167 73.8333,167.833 86.5,179.5C 114.043,129.123 153.709,91.6228 205.5,67C 229.204,57.3592 253.871,52.5259 279.5,52.5C 302.8,54.5632 326.134,56.2299 349.5,57.5C 362.365,57.5883 375.032,56.0883 387.5,53C 391.792,51.6043 395.292,49.1043 398,45.5C 405.464,29.6996 415.63,15.8663 428.5,4C 430.993,2.58141 433.326,1.08141 435.5,-0.5 Z"/></g>
</svg>
